<svg width="320" height="108" viewBox="0 0 320 108" fill="none" xmlns="http://www.w3.org/2000/svg">
<path d="M62.604 107.776C54.4147 107.776 46.8173 106.444 39.812 103.78C32.9053 101.116 26.8867 97.3667 21.756 92.532C16.724 87.6973 12.7773 82.024 9.916 75.512C7.15333 69 5.772 61.896 5.772 54.2C5.772 46.504 7.15333 39.4 9.916 32.888C12.7773 26.376 16.7733 20.7027 21.904 15.868C27.0347 11.0333 33.0533 7.28399 39.96 4.61999C46.8667 1.956 54.3653 0.623998 62.456 0.623998C70.6453 0.623998 78.144 1.956 84.952 4.61999C91.8587 7.28399 97.828 11.0333 102.86 15.868C107.991 20.7027 111.987 26.376 114.848 32.888C117.709 39.3013 119.14 46.4053 119.14 54.2C119.14 61.896 117.709 69.0493 114.848 75.66C111.987 82.172 107.991 87.8453 102.86 92.68C97.828 97.416 91.8587 101.116 84.952 103.78C78.144 106.444 70.6947 107.776 62.604 107.776ZM62.456 87.352C67.0933 87.352 71.336 86.5627 75.184 84.984C79.1307 83.4053 82.584 81.136 85.544 78.176C88.504 75.216 90.7733 71.7133 92.352 67.668C94.0293 63.6227 94.868 59.1333 94.868 54.2C94.868 49.2667 94.0293 44.7773 92.352 40.732C90.7733 36.6867 88.504 33.184 85.544 30.224C82.6827 27.264 79.2787 24.9947 75.332 23.416C71.3853 21.8373 67.0933 21.048 62.456 21.048C57.8187 21.048 53.5267 21.8373 49.58 23.416C45.732 24.9947 42.328 27.264 39.368 30.224C36.408 33.184 34.0893 36.6867 32.412 40.732C30.8333 44.7773 30.044 49.2667 30.044 54.2C30.044 59.0347 30.8333 63.524 32.412 67.668C34.0893 71.7133 36.3587 75.216 39.22 78.176C42.18 81.136 45.6333 83.4053 49.58 84.984C53.5267 86.5627 57.8187 87.352 62.456 87.352ZM162.319 49.02H212.047V68.26H162.319V49.02ZM164.095 106H140.119V2.39999H218.411V21.64H164.095V106ZM259.802 49.02H309.53V68.26H259.802V49.02ZM261.578 106H237.602V2.39999H315.894V21.64H261.578V106Z" fill="white"/>
<path d="M0 60.12H319.89V67.52H0V60.12Z" fill="white"/>
</svg>
