<svg width="282" height="51" viewBox="0 0 282 51" fill="none" xmlns="http://www.w3.org/2000/svg">
<path d="M181.253 42.2735V8.23568H195.111C198.742 8.23568 201.919 8.96506 204.642 10.4238C207.397 11.8502 209.537 13.8438 211.06 16.4047C212.584 18.9657 213.346 21.9156 213.346 25.2546C213.346 28.5935 212.584 31.5435 211.06 34.1044C209.537 36.6653 207.397 38.6752 204.642 40.1339C201.919 41.5603 198.742 42.2735 195.111 42.2735H181.253ZM184.851 39.1614H194.917C197.932 39.1614 200.541 38.5779 202.746 37.4109C204.982 36.2115 206.717 34.5744 207.948 32.4998C209.18 30.3927 209.796 27.9776 209.796 25.2546C209.796 22.4991 209.18 20.0841 207.948 18.0094C206.717 15.9347 204.982 14.3139 202.746 13.1468C200.541 11.9474 197.932 11.3477 194.917 11.3477H184.851V39.1614ZM224.635 23.4554H242.627V26.5188H224.635V23.4554ZM225.024 39.1614H245.496V42.2735H221.426V8.23568H244.766V11.3477H225.024V39.1614ZM263.155 42.2735L248.081 8.23568H251.972L266.073 40.2798H263.933L278.132 8.23568H281.779L266.705 42.2735H263.155Z" fill="black"/>
<path d="M8.75257 24.7197H26.744V27.8317H8.75257V24.7197ZM9.14158 42.2735H5.5433V8.23568H28.8835V11.3477H9.14158V42.2735Z" fill="#374151"/>
<path d="M18.6093 42L34.1695 7.96221H37.7191L53.2793 42H49.4865L35.1906 10.0531H36.6494L22.3535 42H18.6093ZM24.7361 32.907L25.8059 29.9895H45.5964L46.6662 32.907H24.7361Z" fill="#374151"/>
<path d="M60.3978 42.5652C57.8692 42.5652 55.438 42.16 53.1039 41.3496C50.8023 40.5067 49.0194 39.437 47.7552 38.1403L49.1653 35.3687C50.3647 36.5357 51.9694 37.5244 53.9792 38.3348C56.0215 39.1128 58.161 39.5018 60.3978 39.5018C62.5373 39.5018 64.2716 39.2425 65.6007 38.7238C66.9622 38.1727 67.9509 37.4433 68.5668 36.5357C69.2152 35.628 69.5393 34.6231 69.5393 33.5209C69.5393 32.1918 69.1503 31.122 68.3723 30.3116C67.6267 29.5012 66.638 28.8691 65.4062 28.4152C64.1743 27.929 62.8128 27.5076 61.3216 27.151C59.8305 26.7944 58.3393 26.4216 56.8481 26.0326C55.3569 25.6112 53.9792 25.0601 52.7149 24.3793C51.4831 23.6986 50.4782 22.8071 49.7002 21.7049C48.9546 20.5703 48.5818 19.0954 48.5818 17.28C48.5818 15.5943 49.0194 14.0545 49.8947 12.6606C50.8023 11.2342 52.1801 10.0997 54.0278 9.25681C55.8756 8.38155 58.242 7.94393 61.1271 7.94393C63.0397 7.94393 64.9361 8.21947 66.8163 8.77056C68.6965 9.28923 70.3173 10.0186 71.6789 10.9587L70.4632 13.8276C69.0045 12.8551 67.4484 12.1419 65.7952 11.6881C64.1743 11.2342 62.6021 11.0073 61.0785 11.0073C59.0362 11.0073 57.3506 11.2829 56.0215 11.834C54.6924 12.385 53.7037 13.1306 53.0553 14.0707C52.4394 14.9784 52.1314 16.0157 52.1314 17.1828C52.1314 18.5118 52.5042 19.5816 53.2498 20.392C54.0278 21.2025 55.0328 21.8346 56.2646 22.2884C57.5289 22.7423 58.9066 23.1475 60.3978 23.5041C61.8889 23.8606 63.3639 24.2496 64.8227 24.6711C66.3139 25.0925 67.6754 25.6436 68.9072 26.3243C70.1715 26.9727 71.1764 27.8479 71.922 28.9501C72.7 30.0523 73.089 31.4948 73.089 33.2778C73.089 34.931 72.6352 36.4708 71.7275 37.8972C70.8198 39.2911 69.4259 40.4257 67.5457 41.301C65.6979 42.1438 63.3153 42.5652 60.3978 42.5652Z" fill="#374151"/>
<path d="M96.6957 8.23568H100.245V42.2735H96.6957V8.23568ZM75.3977 42.2735H71.7995V8.23568H75.3977V42.2735ZM97.0361 26.5675H75.0087V23.4068H97.0361V26.5675Z" fill="#374151"/>
<path d="M103.954 42.2735V8.23568H107.552V42.2735H103.954Z" fill="#374151"/>
<path d="M126.303 42.5652C123.742 42.5652 121.359 42.1438 119.155 41.301C116.983 40.4257 115.087 39.2101 113.466 37.6541C111.877 36.0656 110.629 34.2341 109.722 32.1594C108.846 30.0523 108.409 27.7507 108.409 25.2546C108.409 22.7585 108.846 20.4731 109.722 18.3984C110.629 16.2913 111.877 14.4597 113.466 12.9037C115.087 11.3153 116.983 10.0997 119.155 9.25681C121.327 8.38155 123.71 7.94393 126.303 7.94393C128.864 7.94393 131.23 8.38155 133.402 9.25681C135.574 10.0997 137.454 11.2991 139.043 12.8551C140.664 14.4111 141.912 16.2427 142.787 18.3498C143.695 20.4569 144.149 22.7585 144.149 25.2546C144.149 27.7507 143.695 30.0523 142.787 32.1594C141.912 34.2665 140.664 36.098 139.043 37.6541C137.454 39.2101 135.574 40.4257 133.402 41.301C131.23 42.1438 128.864 42.5652 126.303 42.5652ZM126.303 39.3559C128.345 39.3559 130.225 39.0156 131.944 38.3348C133.694 37.6216 135.201 36.6329 136.466 35.3687C137.762 34.072 138.767 32.5808 139.48 30.8951C140.194 29.177 140.55 27.2968 140.55 25.2546C140.55 23.2123 140.194 21.3483 139.48 19.6626C138.767 17.9446 137.762 16.4534 136.466 15.1891C135.201 13.8924 133.694 12.9037 131.944 12.223C130.225 11.5098 128.345 11.1532 126.303 11.1532C124.261 11.1532 122.364 11.5098 120.614 12.223C118.863 12.9037 117.34 13.8924 116.043 15.1891C114.779 16.4534 113.774 17.9446 113.028 19.6626C112.315 21.3483 111.958 23.2123 111.958 25.2546C111.958 27.2644 112.315 29.1284 113.028 30.8465C113.774 32.5646 114.779 34.072 116.043 35.3687C117.34 36.6329 118.863 37.6216 120.614 38.3348C122.364 39.0156 124.261 39.3559 126.303 39.3559Z" fill="#374151"/>
<path d="M141.629 42V7.96221H144.595L168.081 37.5265H166.525V7.96221H170.075V42H167.109L143.671 12.4357H145.227V42H141.629Z" fill="#374151"/>
</svg>
