<svg width="50" height="52" viewBox="0 0 50 52" fill="none" xmlns="http://www.w3.org/2000/svg">
<path fill-rule="evenodd" clip-rule="evenodd" d="M1.11731 24.0548V51.5879H22.0409C27.5226 51.5879 32.3192 50.5111 36.4305 48.3576C40.5907 46.1551 43.821 43.1206 46.1214 39.254C48.4218 35.3874 49.5719 30.9335 49.5719 25.8922C49.5719 20.851 48.4218 16.3971 46.1214 12.5305C43.821 8.66392 40.5907 5.65386 36.4305 3.50032C32.3192 1.29784 27.5226 0.196594 22.0409 0.196594H1.11731V19.1511H0.975807V24.0548H1.11731ZM6.5501 24.0548H3.42768H1.11731V19.1511H3.42768H6.5501V24.0548ZM6.5501 24.0548H25.0299C26.384 24.0548 27.4817 22.9571 27.4817 21.6029C27.4817 20.2488 26.384 19.1511 25.0299 19.1511H6.5501V4.89523H21.7472C26.299 4.89523 30.239 5.80069 33.5672 7.61162C36.9444 9.37361 39.5629 11.8208 41.4228 14.9532C43.2826 18.0857 44.2126 21.732 44.2126 25.8922C44.2126 30.0035 43.2826 33.6499 41.4228 36.8312C39.5629 39.9637 36.9444 42.4353 33.5672 44.2463C30.239 46.0083 26.299 46.8892 21.7472 46.8892H6.5501V24.0548Z" fill="#374151"/>
</svg>
