<svg width="352" height="40" viewBox="0 0 352 40" fill="none" xmlns="http://www.w3.org/2000/svg">
<path d="M18.1822 0L21.9635 13.8197H34.2L24.3004 22.3607L28.0817 36.1803L18.1822 27.6393L8.28265 36.1803L12.0639 22.3607L2.1644 13.8197H14.4009L18.1822 0Z" fill="#FFD600"/>
<path d="M59.8665 0L63.6478 13.8197H75.8843L65.9848 22.3607L69.7661 36.1803L59.8665 27.6393L49.967 36.1803L53.7483 22.3607L43.8487 13.8197H56.0852L59.8665 0Z" fill="#FFD600"/>
<path d="M101.551 0L105.332 13.8197H117.568L107.669 22.3607L111.45 36.1803L101.551 27.6393L91.6511 36.1803L95.4323 22.3607L85.5328 13.8197H97.7693L101.551 0Z" fill="#FFD600"/>
<path d="M143.235 0L147.016 13.8197H159.253L149.353 22.3607L153.134 36.1803L143.235 27.6393L133.335 36.1803L137.117 22.3607L127.217 13.8197H139.454L143.235 0Z" fill="#FFD600"/>
<path d="M184.919 0L188.7 13.8197H200.937L191.037 22.3607L194.819 36.1803L184.919 27.6393L175.019 36.1803L178.801 22.3607L168.901 13.8197H181.138L184.919 0Z" fill="#FFD600"/>
<path d="M213.281 29.104C212.695 28.1333 212.236 27.0133 211.905 25.744C211.585 24.464 211.425 23.088 211.425 21.616C211.425 20.144 211.585 18.768 211.905 17.488C212.236 16.1973 212.695 15.0773 213.281 14.128H214.369C213.74 15.2267 213.276 16.3947 212.977 17.632C212.689 18.8587 212.545 20.1867 212.545 21.616C212.545 23.0453 212.689 24.3787 212.977 25.616C213.276 26.8427 213.74 28.0053 214.369 29.104H213.281ZM218.287 26V15.28L218.799 15.824H215.647V14.8H219.439V26H218.287ZM227.936 26V14.8H228.912L234.032 23.536H233.52L238.592 14.8H239.568V26H238.432V16.576H238.704L234.032 24.576H233.472L228.768 16.576H229.072V26H227.936ZM243.297 26V17.6H244.433V26H243.297ZM243.873 15.744C243.638 15.744 243.441 15.664 243.281 15.504C243.121 15.344 243.041 15.152 243.041 14.928C243.041 14.704 243.121 14.5173 243.281 14.368C243.441 14.208 243.638 14.128 243.873 14.128C244.108 14.128 244.305 14.2027 244.465 14.352C244.625 14.5013 244.705 14.688 244.705 14.912C244.705 15.1467 244.625 15.344 244.465 15.504C244.316 15.664 244.118 15.744 243.873 15.744ZM247.914 26V14.128H249.05V26H247.914ZM255.486 26L260.606 14.8H261.774L266.894 26H265.646L260.942 15.488H261.422L256.718 26H255.486ZM257.502 23.008L257.854 22.048H264.366L264.718 23.008H257.502ZM270.565 26L266.837 17.6H268.021L271.445 25.392H270.885L274.357 17.6H275.477L271.733 26H270.565ZM282.411 26V24.144L282.363 23.84V20.736C282.363 20.0213 282.16 19.472 281.755 19.088C281.36 18.704 280.768 18.512 279.979 18.512C279.435 18.512 278.918 18.6027 278.427 18.784C277.936 18.9653 277.52 19.2053 277.179 19.504L276.667 18.656C277.094 18.2933 277.606 18.016 278.203 17.824C278.8 17.6213 279.43 17.52 280.091 17.52C281.179 17.52 282.016 17.792 282.603 18.336C283.2 18.8693 283.499 19.6853 283.499 20.784V26H282.411ZM279.515 26.08C278.886 26.08 278.336 25.9787 277.867 25.776C277.408 25.5627 277.056 25.2747 276.811 24.912C276.566 24.5387 276.443 24.112 276.443 23.632C276.443 23.1947 276.544 22.8 276.747 22.448C276.96 22.0853 277.302 21.7973 277.771 21.584C278.251 21.36 278.891 21.248 279.691 21.248H282.587V22.096H279.723C278.912 22.096 278.347 22.24 278.027 22.528C277.718 22.816 277.563 23.1733 277.563 23.6C277.563 24.08 277.75 24.464 278.123 24.752C278.496 25.04 279.019 25.184 279.691 25.184C280.331 25.184 280.88 25.04 281.339 24.752C281.808 24.4533 282.15 24.0267 282.363 23.472L282.619 24.256C282.406 24.8107 282.032 25.2533 281.499 25.584C280.976 25.9147 280.315 26.08 279.515 26.08ZM286.905 26V14.128H288.041V26H286.905ZM291.521 26V17.6H292.657V26H291.521ZM292.097 15.744C291.863 15.744 291.665 15.664 291.505 15.504C291.345 15.344 291.265 15.152 291.265 14.928C291.265 14.704 291.345 14.5173 291.505 14.368C291.665 14.208 291.863 14.128 292.097 14.128C292.332 14.128 292.529 14.2027 292.689 14.352C292.849 14.5013 292.929 14.688 292.929 14.912C292.929 15.1467 292.849 15.344 292.689 15.504C292.54 15.664 292.343 15.744 292.097 15.744ZM301.402 26V24.144L301.354 23.84V20.736C301.354 20.0213 301.152 19.472 300.746 19.088C300.352 18.704 299.76 18.512 298.97 18.512C298.426 18.512 297.909 18.6027 297.418 18.784C296.928 18.9653 296.512 19.2053 296.17 19.504L295.658 18.656C296.085 18.2933 296.597 18.016 297.194 17.824C297.792 17.6213 298.421 17.52 299.082 17.52C300.17 17.52 301.008 17.792 301.594 18.336C302.192 18.8693 302.49 19.6853 302.49 20.784V26H301.402ZM298.506 26.08C297.877 26.08 297.328 25.9787 296.858 25.776C296.4 25.5627 296.048 25.2747 295.802 24.912C295.557 24.5387 295.434 24.112 295.434 23.632C295.434 23.1947 295.536 22.8 295.738 22.448C295.952 22.0853 296.293 21.7973 296.762 21.584C297.242 21.36 297.882 21.248 298.682 21.248H301.578V22.096H298.714C297.904 22.096 297.338 22.24 297.018 22.528C296.709 22.816 296.554 23.1733 296.554 23.6C296.554 24.08 296.741 24.464 297.114 24.752C297.488 25.04 298.01 25.184 298.682 25.184C299.322 25.184 299.872 25.04 300.33 24.752C300.8 24.4533 301.141 24.0267 301.354 23.472L301.61 24.256C301.397 24.8107 301.024 25.2533 300.49 25.584C299.968 25.9147 299.306 26.08 298.506 26.08ZM309.384 26.08C308.552 26.08 307.805 25.8987 307.144 25.536C306.493 25.1627 305.981 24.656 305.608 24.016C305.235 23.3653 305.048 22.624 305.048 21.792C305.048 20.9493 305.235 20.208 305.608 19.568C305.981 18.928 306.493 18.4267 307.144 18.064C307.805 17.7013 308.552 17.52 309.384 17.52C310.099 17.52 310.744 17.6587 311.32 17.936C311.896 18.2133 312.349 18.6293 312.68 19.184L311.832 19.76C311.544 19.3333 311.187 19.0187 310.76 18.816C310.333 18.6133 309.869 18.512 309.368 18.512C308.771 18.512 308.232 18.6507 307.752 18.928C307.272 19.1947 306.893 19.5733 306.616 20.064C306.339 20.5547 306.2 21.1307 306.2 21.792C306.2 22.4533 306.339 23.0293 306.616 23.52C306.893 24.0107 307.272 24.3947 307.752 24.672C308.232 24.9387 308.771 25.072 309.368 25.072C309.869 25.072 310.333 24.9707 310.76 24.768C311.187 24.5653 311.544 24.256 311.832 23.84L312.68 24.416C312.349 24.96 311.896 25.376 311.32 25.664C310.744 25.9413 310.099 26.08 309.384 26.08ZM308.712 29.52C308.445 29.52 308.2 29.488 307.976 29.424C307.763 29.36 307.56 29.2693 307.368 29.152L307.64 28.544C307.8 28.64 307.965 28.7147 308.136 28.768C308.317 28.8213 308.504 28.848 308.696 28.848C309.016 28.848 309.261 28.7787 309.432 28.64C309.603 28.512 309.688 28.3307 309.688 28.096C309.688 27.8827 309.603 27.7067 309.432 27.568C309.272 27.4293 309.027 27.36 308.696 27.36H308.328L308.712 25.904H309.4L309.16 26.832C309.597 26.864 309.933 26.9973 310.168 27.232C310.403 27.4773 310.52 27.776 310.52 28.128C310.52 28.5547 310.349 28.8907 310.008 29.136C309.677 29.392 309.245 29.52 308.712 29.52ZM318.515 26.08C317.704 26.08 316.974 25.8987 316.323 25.536C315.683 25.1627 315.176 24.656 314.803 24.016C314.43 23.3653 314.243 22.624 314.243 21.792C314.243 20.9493 314.43 20.208 314.803 19.568C315.176 18.928 315.683 18.4267 316.323 18.064C316.963 17.7013 317.694 17.52 318.515 17.52C319.347 17.52 320.083 17.7013 320.723 18.064C321.374 18.4267 321.88 18.928 322.243 19.568C322.616 20.208 322.803 20.9493 322.803 21.792C322.803 22.624 322.616 23.3653 322.243 24.016C321.88 24.656 321.374 25.1627 320.723 25.536C320.072 25.8987 319.336 26.08 318.515 26.08ZM318.515 25.072C319.123 25.072 319.662 24.9387 320.131 24.672C320.6 24.3947 320.968 24.0107 321.235 23.52C321.512 23.0187 321.651 22.4427 321.651 21.792C321.651 21.1307 321.512 20.5547 321.235 20.064C320.968 19.5733 320.6 19.1947 320.131 18.928C319.662 18.6507 319.128 18.512 318.531 18.512C317.934 18.512 317.4 18.6507 316.931 18.928C316.462 19.1947 316.088 19.5733 315.811 20.064C315.534 20.5547 315.395 21.1307 315.395 21.792C315.395 22.4427 315.534 23.0187 315.811 23.52C316.088 24.0107 316.462 24.3947 316.931 24.672C317.4 24.9387 317.928 25.072 318.515 25.072ZM319.603 16.192C319.358 16.192 319.139 16.1387 318.947 16.032C318.755 15.9253 318.579 15.8027 318.419 15.664C318.27 15.5147 318.12 15.3867 317.971 15.28C317.822 15.1627 317.667 15.104 317.507 15.104C317.262 15.104 317.064 15.1947 316.915 15.376C316.776 15.5573 316.696 15.808 316.675 16.128H315.987C316.008 15.5947 316.147 15.168 316.403 14.848C316.67 14.528 317.011 14.368 317.427 14.368C317.672 14.368 317.891 14.4267 318.083 14.544C318.286 14.6507 318.462 14.7787 318.611 14.928C318.771 15.0667 318.92 15.1893 319.059 15.296C319.208 15.4027 319.363 15.456 319.523 15.456C319.768 15.456 319.966 15.3707 320.115 15.2C320.264 15.0187 320.344 14.7733 320.355 14.464H321.043C321.032 14.976 320.894 15.392 320.627 15.712C320.36 16.032 320.019 16.192 319.603 16.192ZM329.01 26.08C328.135 26.08 327.367 25.8987 326.706 25.536C326.045 25.1627 325.527 24.656 325.154 24.016C324.781 23.3653 324.594 22.624 324.594 21.792C324.594 20.96 324.77 20.224 325.122 19.584C325.485 18.944 325.975 18.4427 326.594 18.08C327.223 17.7067 327.927 17.52 328.706 17.52C329.495 17.52 330.194 17.7013 330.802 18.064C331.421 18.416 331.906 18.9173 332.258 19.568C332.61 20.208 332.786 20.9493 332.786 21.792C332.786 21.8453 332.781 21.904 332.77 21.968C332.77 22.0213 332.77 22.08 332.77 22.144H325.458V21.296H332.162L331.714 21.632C331.714 21.024 331.581 20.4853 331.314 20.016C331.058 19.536 330.706 19.1627 330.258 18.896C329.81 18.6293 329.293 18.496 328.706 18.496C328.13 18.496 327.613 18.6293 327.154 18.896C326.695 19.1627 326.338 19.536 326.082 20.016C325.826 20.496 325.698 21.0453 325.698 21.664V21.84C325.698 22.48 325.837 23.0453 326.114 23.536C326.402 24.016 326.797 24.3947 327.298 24.672C327.81 24.9387 328.391 25.072 329.042 25.072C329.554 25.072 330.029 24.9813 330.466 24.8C330.914 24.6187 331.298 24.3413 331.618 23.968L332.258 24.704C331.885 25.152 331.415 25.4933 330.85 25.728C330.295 25.9627 329.682 26.08 329.01 26.08ZM337.674 26.08C336.981 26.08 336.325 25.984 335.706 25.792C335.088 25.5893 334.602 25.3387 334.25 25.04L334.762 24.144C335.104 24.4 335.541 24.624 336.074 24.816C336.608 24.9973 337.168 25.088 337.754 25.088C338.554 25.088 339.13 24.9653 339.482 24.72C339.834 24.464 340.01 24.128 340.01 23.712C340.01 23.4027 339.909 23.1627 339.706 22.992C339.514 22.8107 339.258 22.6773 338.938 22.592C338.618 22.496 338.261 22.416 337.866 22.352C337.472 22.288 337.077 22.2133 336.682 22.128C336.298 22.0427 335.946 21.92 335.626 21.76C335.306 21.5893 335.045 21.36 334.842 21.072C334.65 20.784 334.554 20.4 334.554 19.92C334.554 19.4613 334.682 19.0507 334.938 18.688C335.194 18.3253 335.568 18.0427 336.058 17.84C336.56 17.6267 337.168 17.52 337.882 17.52C338.426 17.52 338.97 17.5947 339.514 17.744C340.058 17.8827 340.506 18.0693 340.858 18.304L340.362 19.216C339.989 18.96 339.589 18.7787 339.162 18.672C338.736 18.5547 338.309 18.496 337.882 18.496C337.125 18.496 336.565 18.6293 336.202 18.896C335.85 19.152 335.674 19.4827 335.674 19.888C335.674 20.208 335.77 20.4587 335.962 20.64C336.165 20.8213 336.426 20.9653 336.746 21.072C337.077 21.168 337.434 21.248 337.818 21.312C338.213 21.376 338.602 21.456 338.986 21.552C339.381 21.6373 339.738 21.76 340.058 21.92C340.389 22.0693 340.65 22.288 340.842 22.576C341.045 22.8533 341.146 23.2213 341.146 23.68C341.146 24.1707 341.008 24.5973 340.73 24.96C340.464 25.312 340.069 25.5893 339.546 25.792C339.034 25.984 338.41 26.08 337.674 26.08ZM343.695 29.104H342.607C343.247 28.0053 343.711 26.8427 343.999 25.616C344.298 24.3787 344.447 23.0453 344.447 21.616C344.447 20.1867 344.298 18.8587 343.999 17.632C343.711 16.3947 343.247 15.2267 342.607 14.128H343.695C344.303 15.0773 344.767 16.1973 345.087 17.488C345.407 18.768 345.567 20.144 345.567 21.616C345.567 23.088 345.407 24.464 345.087 25.744C344.767 27.0133 344.303 28.1333 343.695 29.104Z" fill="#374151"/>
</svg>
