<svg width="74" height="42" viewBox="0 0 74 42" fill="none" xmlns="http://www.w3.org/2000/svg">
<rect x="1" y="0.840027" width="72" height="40" rx="20" fill="white"/>
<rect x="1" y="0.840027" width="72" height="40" rx="20" stroke="black" stroke-width="1.58816"/>
<path d="M30.3968 30.34V12.5527H37.0544C38.562 12.5527 39.858 12.7983 40.9422 13.2896C42.0263 13.7639 42.8564 14.4585 43.4324 15.3732C44.0253 16.2711 44.3218 17.3637 44.3218 18.6512C44.3218 19.9048 44.0253 20.989 43.4324 21.9037C42.8564 22.8016 42.0263 23.4961 40.9422 23.9874C39.858 24.4787 38.562 24.7243 37.0544 24.7243H31.4386L32.2772 23.8349V30.34H30.3968ZM32.2772 23.9874L31.4386 23.0726H37.0035C38.7823 23.0726 40.129 22.6915 41.0438 21.9291C41.9755 21.1499 42.4414 20.0572 42.4414 18.6512C42.4414 17.2282 41.9755 16.1271 41.0438 15.3478C40.129 14.5686 38.7823 14.1789 37.0035 14.1789H31.4386L32.2772 13.2896V23.9874Z" fill="black"/>
</svg>
