<svg width="74" height="42" viewBox="0 0 74 42" fill="none" xmlns="http://www.w3.org/2000/svg">
<rect x="1" y="0.840027" width="72" height="40" rx="20" stroke="black" stroke-opacity="0.3" stroke-width="0.794079"/>
<path d="M37.6978 30.4925C36.3426 30.4925 35.089 30.2723 33.9371 29.8318C32.8021 29.3744 31.8111 28.7392 30.964 27.926C30.134 27.1129 29.4818 26.1558 29.0074 25.0546C28.55 23.9535 28.3213 22.7508 28.3213 21.4463C28.3213 20.1419 28.55 18.9392 29.0074 17.8381C29.4818 16.7369 30.1424 15.7798 30.9895 14.9667C31.8365 14.1535 32.8275 13.5267 33.9625 13.0863C35.1144 12.6289 36.368 12.4002 37.7232 12.4002C39.0785 12.4002 40.3151 12.612 41.4332 13.0355C42.5682 13.459 43.5338 14.1027 44.33 14.9667L43.1611 16.161C42.4157 15.4156 41.5941 14.882 40.6963 14.5601C39.7984 14.2382 38.8328 14.0773 37.7995 14.0773C36.6983 14.0773 35.6819 14.2636 34.7502 14.6363C33.8354 14.9921 33.0308 15.5088 32.3362 16.1864C31.6586 16.847 31.125 17.6263 30.7353 18.5241C30.3627 19.405 30.1763 20.3791 30.1763 21.4463C30.1763 22.4966 30.3627 23.4707 30.7353 24.3686C31.125 25.2664 31.6586 26.0541 32.3362 26.7317C33.0308 27.3924 33.8354 27.9091 34.7502 28.2818C35.6819 28.6375 36.6899 28.8154 37.7741 28.8154C38.7905 28.8154 39.7476 28.6629 40.6454 28.358C41.5602 28.0531 42.3988 27.5364 43.1611 26.808L44.2283 28.231C43.3813 28.9763 42.3903 29.5438 41.2553 29.9335C40.1203 30.3061 38.9345 30.4925 37.6978 30.4925ZM42.4242 28.0023V21.4463H44.2283V28.231L42.4242 28.0023Z" fill="black"/>
</svg>
